<?xml version="1.0" standalone="no"?>
<!DOCTYPE svg PUBLIC "-//W3C//DTD SVG 20010904//EN"
 "http://www.w3.org/TR/2001/REC-SVG-20010904/DTD/svg10.dtd">
<svg version="1.0" xmlns="http://www.w3.org/2000/svg"
 width="512.000000pt" height="512.000000pt" viewBox="0 0 512.000000 512.000000"
 preserveAspectRatio="xMidYMid meet">

<g transform="translate(0.000000,512.000000) scale(0.100000,-0.100000)"
fill="#000000" stroke="none">
<path d="M2440 4774 c-41 -8 -147 -23 -235 -35 -88 -11 -194 -25 -235 -30 -89
-12 -144 -25 -185 -46 -68 -35 -325 -256 -325 -279 0 -8 22 -46 49 -85 28 -39
52 -76 54 -82 2 -7 33 17 68 53 73 74 168 126 290 159 218 58 343 121 494 248
90 75 130 103 147 103 8 0 55 -35 105 -77 151 -129 238 -177 441 -245 258 -87
328 -122 383 -192 24 -31 49 -56 56 -56 7 0 22 19 34 43 12 23 35 61 52 85
l31 42 -45 46 c-71 75 -250 215 -304 240 -53 24 -91 31 -335 64 -85 12 -212
30 -283 40 -145 23 -155 23 -257 4z m-23 -60 c-3 -3 -12 -4 -19 -1 -8 3 -5 6
6 6 11 1 17 -2 13 -5z m-59 -11 c-15 -2 -42 -2 -60 0 -18 2 -6 4 27 4 33 0 48
-2 33 -4z m435 0 c-13 -2 -33 -2 -45 0 -13 2 -3 4 22 4 25 0 35 -2 23 -4z"/>
<path d="M770 4574 c0 -3 30 -39 67 -79 78 -86 123 -151 123 -176 0 -10 -27
-83 -60 -161 -33 -79 -83 -217 -112 -307 l-53 -164 -75 -77 c-107 -110 -239
-262 -282 -327 -36 -53 -38 -58 -38 -139 0 -66 5 -94 21 -126 56 -110 139
-386 139 -464 0 -50 -44 -200 -100 -344 -23 -58 -48 -121 -55 -140 -21 -55 -8
-162 24 -210 36 -53 221 -277 303 -367 58 -63 70 -83 88 -146 27 -93 24 -85
124 -338 47 -119 86 -227 86 -239 0 -16 -35 -58 -107 -133 -60 -61 -101 -107
-92 -104 50 17 242 59 359 77 163 27 185 35 253 99 55 52 167 199 167 220 0
15 -11 14 -125 -10 -109 -22 -159 -22 -161 1 -1 8 -2 20 -3 27 -1 14 -300 315
-479 483 -74 68 -140 136 -147 150 -8 15 -21 64 -30 111 -9 46 -20 104 -26
128 -13 57 3 78 31 41 11 -14 29 -37 40 -53 12 -15 59 -45 104 -67 81 -39 116
-49 116 -31 0 16 -22 76 -61 166 -69 162 -71 254 -14 484 13 52 22 98 19 103
-10 17 -21 7 -33 -29 -51 -162 -84 -289 -91 -348 l-7 -70 -2 60 c-1 63 42 243
79 330 11 26 20 49 20 51 0 3 -50 3 -110 2 l-111 -3 -40 -100 c-36 -89 -95
-205 -104 -205 -2 0 6 21 17 48 12 26 43 110 70 187 l48 140 514 3 515 2 6
-47 c17 -143 73 -306 147 -431 18 -31 83 -106 143 -167 131 -132 238 -200 385
-245 232 -71 411 -65 666 23 68 23 203 109 280 178 182 162 298 376 327 601
l11 88 512 0 511 0 16 -42 c8 -24 39 -109 69 -191 30 -81 54 -147 52 -147 -9
0 -120 236 -138 292 -5 16 -19 18 -116 18 -102 0 -110 -1 -101 -17 19 -36 82
-241 91 -295 5 -31 5 -78 1 -105 -7 -44 -8 -41 -13 47 -4 75 -14 122 -48 225
-23 72 -47 136 -52 142 -23 29 -24 -3 -2 -94 58 -237 55 -322 -15 -488 -21
-49 -41 -100 -45 -112 -3 -13 -9 -32 -12 -43 -5 -18 -2 -20 23 -14 73 18 173
75 217 126 25 29 48 49 52 45 10 -9 -12 -180 -31 -243 -13 -46 -29 -65 -145
-174 -72 -68 -128 -125 -126 -128 3 -3 14 1 23 9 16 13 17 12 5 -3 -8 -10 -22
-16 -31 -15 -11 1 -73 -52 -157 -132 -76 -74 -128 -129 -115 -122 13 7 76 64
141 127 64 63 119 114 122 114 12 0 -244 -254 -257 -256 -22 -3 -71 -41 -89
-68 -29 -46 -17 -41 39 14 30 30 55 50 55 44 0 -5 -29 -34 -64 -64 -36 -31
-62 -60 -59 -67 7 -18 -31 -17 -145 3 -50 8 -103 14 -118 12 l-26 -3 59 -90
c106 -160 162 -198 333 -225 128 -19 281 -50 332 -65 28 -8 53 -13 55 -12 1 2
-44 54 -102 115 -58 62 -105 115 -105 120 0 4 24 64 54 132 66 154 149 373
173 460 15 56 26 74 78 125 113 112 320 379 334 432 21 75 14 127 -33 237 -25
57 -64 163 -87 236 -35 111 -41 140 -36 188 6 67 84 314 135 424 32 72 34 83
30 148 -5 62 -11 79 -44 128 -55 81 -221 276 -297 350 -61 59 -66 68 -82 135
-24 99 -106 319 -172 459 -64 136 -71 111 63 255 47 52 84 96 82 98 -2 2 -26
-3 -53 -11 -28 -8 -145 -35 -261 -59 -227 -46 -269 -62 -326 -122 -45 -47
-118 -152 -118 -169 0 -14 27 -9 153 33 58 18 82 22 90 14 16 -16 -1 -27 -63
-40 -85 -18 -155 -40 -176 -56 -18 -13 -18 -14 -1 -27 20 -15 58 -11 220 22
32 6 66 10 75 8 9 -2 114 -102 232 -223 118 -121 169 -175 113 -121 -56 55
-105 98 -108 95 -4 -5 173 -184 351 -354 47 -45 59 -78 75 -209 8 -66 8 -91
-1 -100 -8 -8 -14 -6 -22 8 -6 10 -26 36 -46 58 -50 55 -222 134 -222 101 0
-11 33 -111 76 -233 46 -131 48 -195 10 -373 -15 -71 -25 -131 -22 -134 17
-17 35 19 70 143 22 77 43 166 47 199 8 58 8 57 4 -15 -3 -44 -19 -125 -40
-197 -19 -67 -35 -123 -35 -125 0 -3 37 -2 175 1 29 1 32 6 89 136 63 146 103
204 56 81 -16 -41 -45 -126 -65 -189 l-36 -115 -262 -7 c-144 -3 -377 -5 -516
-3 l-255 3 -12 87 c-21 141 -86 308 -167 428 -50 74 -177 199 -256 253 -172
116 -325 166 -531 174 -122 4 -144 2 -235 -21 -396 -103 -681 -414 -753 -826
l-17 -95 -225 -3 c-124 -2 -355 0 -515 3 l-290 7 -61 184 c-33 101 -59 184
-56 184 5 0 98 -200 111 -241 11 -34 15 -37 64 -43 29 -3 76 -6 106 -6 62 0
61 -19 12 164 -21 81 -31 141 -31 190 1 78 20 181 39 211 12 20 12 20 6 0 -43
-134 -43 -263 0 -405 14 -47 30 -102 36 -122 5 -22 16 -38 24 -38 19 0 19 3
-10 150 -37 190 -35 215 36 423 33 98 58 181 55 184 -8 9 -152 -56 -198 -89
-22 -16 -46 -45 -54 -64 -15 -36 -28 -43 -38 -19 -7 20 21 209 38 249 7 17 76
89 152 161 76 71 160 152 186 179 30 32 51 47 57 41 19 -20 51 -117 51 -154 0
-36 -4 -41 -44 -65 -46 -27 -80 -66 -89 -101 -5 -20 -5 -20 -6 0 0 11 6 31 15
43 9 13 14 26 11 29 -3 2 -13 -9 -22 -26 -22 -43 -36 -167 -25 -216 5 -22 7
-56 4 -75 l-5 -35 26 45 c14 25 23 36 19 25 -15 -43 -64 -231 -64 -247 0 -10
6 -18 13 -18 7 0 23 36 36 83 39 132 134 308 205 383 40 42 69 64 84 64 13 0
48 18 78 41 63 46 104 118 104 183 0 30 3 37 15 32 10 -4 15 1 15 15 0 25 39
79 57 79 7 0 18 10 23 23 11 25 68 93 73 86 3 -3 81 -165 129 -269 l17 -35 0
31 c1 37 40 68 76 62 18 -4 12 8 -37 66 -79 94 -148 190 -148 207 0 17 52 52
100 67 19 6 121 21 225 32 265 28 516 61 540 70 36 14 47 37 53 122 l7 83 5
-70 c4 -43 2 -73 -5 -77 -6 -5 -11 -111 -13 -293 l-3 -285 21 0 c21 0 21 0 18
285 -2 157 -2 281 0 275 2 -5 18 -18 35 -29 36 -22 130 -36 497 -76 129 -14
256 -32 282 -41 51 -16 98 -49 98 -67 0 -12 -162 -228 -186 -248 -22 -18 -17
-27 12 -21 39 7 77 -33 68 -73 -9 -42 1 -29 26 35 33 84 114 250 122 250 4 0
14 -13 23 -30 8 -16 23 -34 32 -40 17 -10 17 -10 1 -20 -32 -19 -22 -39 16
-33 40 6 76 -23 76 -62 0 -15 6 -25 14 -25 8 0 15 -16 18 -43 8 -67 42 -135
79 -155 18 -9 40 -25 51 -34 10 -10 25 -18 33 -18 9 0 33 -9 54 -20 21 -10 41
-17 43 -14 7 6 77 -24 111 -48 15 -11 27 -26 27 -34 0 -10 -5 -9 -19 5 -22 22
-110 75 -116 70 -2 -3 21 -36 51 -74 64 -83 124 -203 161 -326 16 -51 33 -89
40 -89 16 0 17 -3 -6 88 -32 132 -32 132 -19 130 36 -8 19 262 -19 304 -26 28
-69 49 -88 42 -9 -4 -15 -3 -13 2 3 12 -24 54 -35 54 -4 0 -5 -5 -1 -12 4 -7
3 -8 -4 -4 -19 12 -14 34 23 112 19 40 35 75 35 79 0 16 -46 -2 -56 -23 -16
-33 -28 -41 -19 -12 8 24 7 24 -19 7 -14 -9 -37 -24 -51 -33 -31 -20 -32 -34
-2 -34 18 -1 19 -2 6 -10 -50 -29 -153 52 -182 142 -19 61 -88 148 -138 174
-16 8 -29 13 -29 12 0 -2 27 -33 61 -68 67 -72 83 -98 93 -151 8 -48 65 -122
109 -143 45 -21 83 -21 91 0 4 9 9 15 11 12 8 -8 -24 -78 -35 -78 -7 0 -7 8 1
21 6 12 7 19 1 15 -18 -11 -97 30 -131 69 -35 40 -66 101 -76 150 -7 32 -117
144 -167 171 -15 8 -33 26 -40 41 -31 64 -137 101 -348 123 -58 5 -136 15
-174 21 -84 14 -283 80 -340 113 -45 26 -82 63 -73 72 3 3 10 -4 16 -15 30
-55 212 -121 429 -156 87 -14 167 -27 180 -29 25 -4 25 -4 11 47 l-10 37 -145
0 c-229 0 -352 34 -455 126 -27 24 -54 44 -60 44 -5 0 -28 -17 -52 -39 -93
-85 -231 -131 -398 -131 -106 0 -221 -22 -169 -32 19 -4 16 -6 -12 -7 -31 -1
-38 -5 -38 -21 0 -18 5 -20 33 -15 17 2 93 14 167 26 151 23 309 62 349 87 14
8 42 29 61 46 33 29 32 28 -5 -12 -25 -27 -59 -49 -95 -63 -99 -37 -273 -77
-390 -89 -172 -18 -295 -45 -359 -79 -42 -22 -55 -34 -54 -49 2 -14 -7 -24
-27 -32 -16 -7 -63 -47 -103 -89 -59 -61 -76 -87 -86 -125 -15 -62 -23 -56 -9
7 8 38 25 65 90 138 62 70 77 93 68 104 -10 13 -125 46 -202 60 -29 4 -38 11
-38 25 0 28 18 26 143 -16 60 -20 111 -34 114 -30 8 8 -88 133 -144 188 -26
26 -64 54 -83 62 -19 8 -118 30 -220 50 -102 20 -216 45 -255 56 -79 23 -75
22 -75 14z m2373 -241 c-7 -2 -21 -2 -30 0 -10 3 -4 5 12 5 17 0 24 -2 18 -5z
m-1900 -176 c-4 -8 -96 -99 -203 -202 l-195 -189 195 201 c177 182 226 227
203 190z m97 -7 c41 -11 92 -20 113 -20 20 0 37 -4 37 -9 0 -5 -18 -24 -41
-42 -49 -38 -80 -86 -103 -157 -20 -59 -56 -92 -125 -117 -49 -17 -90 -20 -75
-6 5 5 18 11 28 13 11 1 21 9 24 17 4 11 -2 13 -26 8 -30 -6 -109 22 -97 35 3
3 -8 11 -25 18 -16 7 -30 16 -30 20 0 5 30 36 68 69 48 44 177 182 177 190 0
0 34 -8 75 -19z m2735 -290 c-16 -32 -28 -40 -20 -15 3 8 7 22 10 30 2 8 9 15
15 15 6 0 4 -12 -5 -30z m-2725 -20 c-17 -31 -79 -90 -107 -101 -32 -12 -56
-12 -48 1 3 6 17 10 31 10 17 0 41 17 77 54 59 62 62 63 47 36z m-230 -10 c0
-5 -2 -10 -4 -10 -3 0 -8 5 -11 10 -3 6 -1 10 4 10 6 0 11 -4 11 -10z m2865 0
c3 -5 -1 -10 -10 -10 -9 0 -13 5 -10 10 3 6 8 10 10 10 2 0 7 -4 10 -10z
m-2881 -84 c9 -27 14 -52 11 -54 -7 -8 -10 -2 -27 61 -19 69 -8 64 16 -7z m76
-22 c0 -7 15 -28 33 -46 l33 -33 -72 -1 c-120 -2 -176 -54 -235 -218 -9 -28
-18 -44 -18 -35 -1 25 48 139 80 185 34 50 98 84 157 84 23 0 42 3 42 8 0 4
-11 24 -25 44 -28 42 -32 56 -10 38 8 -7 15 -18 15 -26z m2854 -84 c60 -23
107 -68 131 -127 23 -55 17 -53 -15 6 -45 81 -104 118 -209 131 l-66 7 52 2
c31 0 74 -7 107 -19z m-2945 -87 c-44 -34 -72 -65 -96 -108 -35 -65 -46 -69
-13 -6 26 51 66 98 114 132 66 48 61 32 -5 -18z m3108 -20 c-3 -10 -5 -4 -5
12 0 17 2 24 5 18 2 -7 2 -21 0 -30z m-66 -70 c13 -16 12 -17 -3 -4 -17 13
-22 21 -14 21 2 0 10 -8 17 -17z m68 -43 c0 -10 -3 -8 -9 5 -12 27 -12 43 0
25 5 -8 9 -22 9 -30z m-10 -80 c0 -8 -6 0 -14 19 -8 18 -15 36 -15 40 1 13 29
-45 29 -59z m18 23 c-3 -10 -5 -4 -5 12 0 17 2 24 5 18 2 -7 2 -21 0 -30z
m-1289 -287 l-3 -161 -56 -3 -57 -3 -6 33 c-18 96 -89 189 -178 234 -44 22
-61 26 -123 22 -60 -3 -78 -8 -108 -31 -49 -37 -67 -75 -67 -137 0 -100 47
-151 175 -190 191 -58 318 -128 389 -214 145 -177 151 -489 13 -634 -72 -76
-228 -123 -336 -102 -30 5 -91 28 -137 50 -58 28 -97 40 -127 40 -51 0 -91
-26 -101 -65 -5 -20 -22 -35 -27 -22 -5 13 -9 360 -4 385 l6 33 61 -3 61 -3
31 -95 c38 -113 57 -150 104 -209 52 -65 85 -81 163 -81 77 0 123 16 160 57
47 50 65 110 53 183 -16 97 -81 152 -328 274 -141 70 -168 87 -231 150 -80 79
-102 125 -112 236 -15 176 90 337 250 385 75 22 219 19 287 -6 105 -38 118
-42 143 -35 15 3 29 18 37 37 19 46 39 62 56 48 12 -10 14 -44 12 -173z m1510
39 c0 -19 -5 -7 -13 30 -17 75 -17 92 0 40 8 -22 13 -53 13 -70z m-3288 -2050
c63 -65 106 -112 95 -106 -11 6 -108 99 -215 207 -126 128 -160 165 -95 106
55 -50 152 -143 215 -207z m277 -181 c-3 -3 -12 -4 -19 -1 -8 3 -5 6 6 6 11 1
17 -2 13 -5z m-54 -11 c-7 -2 -21 -2 -30 0 -10 3 -4 5 12 5 17 0 24 -2 18 -5z
m2467 -2 c0 -6 -17 -7 -37 -4 -52 8 -54 13 -5 13 23 0 42 -4 42 -9z"/>
<path d="M3927 4094 c55 -64 161 -164 172 -164 4 0 -44 52 -106 115 -61 63
-114 115 -118 115 -4 0 20 -30 52 -66z"/>
<path d="M1888 3791 c3 -22 -2 -36 -21 -55 -32 -32 -63 -33 -95 -3 -20 18 -16
5 22 -72 26 -51 68 -143 93 -205 25 -61 47 -114 49 -118 2 -4 46 22 98 56 51
34 108 68 125 76 17 7 30 16 29 21 -4 11 -208 236 -261 287 l-44 43 5 -30z"/>
<path d="M3080 3652 c-80 -85 -145 -159 -145 -163 0 -4 32 -25 70 -45 39 -20
93 -54 122 -76 l52 -38 15 22 c8 13 35 75 61 138 26 63 60 141 76 172 l29 57
-33 -6 c-39 -6 -83 24 -94 66 -8 28 -11 25 -153 -127z"/>
<path d="M1270 3605 c0 -3 48 -55 107 -115 97 -101 128 -123 128 -92 0 20
-195 212 -215 212 -11 0 -20 -2 -20 -5z"/>
<path d="M3815 3600 c-25 -10 -205 -193 -205 -209 0 -27 33 -4 134 98 101 101
119 130 71 111z"/>
<path d="M887 2023 c-2 -5 6 -48 18 -98 12 -50 22 -124 22 -165 0 -41 -2 -63
-4 -47 -2 15 -9 27 -15 27 -17 0 -3 -156 19 -215 15 -40 26 -54 57 -69 21 -10
50 -18 64 -18 15 0 30 -2 34 -4 3 -2 -4 -45 -18 -95 -31 -117 -31 -119 4 -109
15 5 46 14 70 20 31 8 42 16 42 30 0 10 -8 21 -17 23 -10 3 2 5 27 5 56 1 69
-5 113 -45 24 -21 42 -52 56 -95 15 -44 33 -76 59 -100 37 -36 180 -138 193
-138 4 0 29 -15 56 -33 40 -27 69 -37 151 -50 56 -9 127 -18 159 -19 l58 -2
-73 -5 -72 -6 17 -34 18 -35 125 -1 c94 -1 146 -7 209 -24 115 -31 224 -84
258 -126 16 -19 32 -35 37 -35 5 0 26 16 47 35 49 44 132 86 234 118 88 28
129 34 255 42 78 5 87 8 115 35 36 36 41 36 -145 15 -237 -27 -361 -74 -444
-166 -26 -28 -49 -49 -52 -46 -4 3 18 31 47 62 91 96 226 145 456 165 220 19
329 44 398 90 22 14 65 39 95 54 126 64 186 128 214 228 14 48 23 62 60 87 56
39 94 49 102 27 3 -9 14 -16 23 -16 9 0 23 -5 31 -11 12 -8 9 -10 -13 -6 -16
3 -26 0 -24 -6 3 -11 89 -36 127 -36 22 0 23 1 9 12 -9 7 -28 49 -43 94 -15
46 -32 85 -37 88 -16 11 -9 20 15 20 21 0 24 -4 20 -25 -3 -14 0 -36 6 -50 10
-23 10 -22 6 12 -4 34 -2 38 28 48 55 18 92 63 112 138 22 80 26 238 7 235
-17 -4 -17 -8 13 109 18 70 23 103 15 111 -12 12 -13 9 -66 -143 -54 -152 -89
-220 -154 -297 -43 -52 -66 -70 -94 -77 -20 -5 -37 -14 -37 -18 0 -5 8 -7 18
-5 9 3 39 8 66 12 39 5 56 15 91 50 24 24 57 70 74 102 16 32 30 54 31 50 0
-4 -13 -33 -29 -65 -38 -76 -105 -138 -160 -147 -22 -4 -41 -10 -41 -13 0 -4
9 -20 21 -37 11 -16 29 -48 40 -70 10 -22 14 -32 7 -21 -71 103 -86 121 -105
124 -28 4 -117 -41 -138 -70 -8 -13 -24 -52 -35 -88 -11 -36 -28 -82 -38 -102
-18 -38 -74 -78 -110 -78 -15 0 -21 -9 -26 -41 -4 -23 -5 -44 -2 -46 15 -16
151 83 166 121 8 18 9 18 9 3 2 -32 -30 -66 -103 -112 -40 -25 -76 -45 -79
-45 -4 0 -7 9 -7 19 0 11 -4 22 -8 25 -5 3 -35 65 -68 139 l-59 135 -17 -29
c-27 -44 -61 -56 -95 -34 -21 14 -17 6 17 -31 60 -65 190 -237 190 -251 0 -15
-76 -75 -115 -92 -16 -7 -83 -17 -150 -22 -145 -11 -155 -12 -420 -45 -115
-14 -214 -30 -220 -35 -5 -5 -14 -46 -21 -92 l-12 -82 -1 75 c-1 41 -5 81 -10
88 -11 18 -187 45 -461 72 -326 32 -353 36 -408 74 -26 18 -48 39 -50 47 -2
14 128 191 184 250 29 30 30 39 6 32 -27 -7 -72 34 -73 65 0 19 -22 -16 -72
-118 -40 -80 -76 -144 -82 -143 -5 1 -12 19 -15 40 -4 34 -8 38 -31 35 -28 -3
-89 40 -89 63 0 7 -6 18 -14 24 -8 7 -22 43 -31 81 -9 39 -26 81 -37 95 -29
37 -90 65 -154 71 -113 10 -167 51 -224 167 -22 45 -42 96 -45 112 -3 17 5 2
18 -31 32 -84 70 -146 111 -182 38 -33 94 -55 128 -50 21 3 20 5 -13 24 -80
47 -184 225 -250 427 -30 90 -41 109 -52 90z m50 -375 c-3 -7 -5 -2 -5 12 0
14 2 19 5 13 2 -7 2 -19 0 -25z m10 -60 c-3 -7 -5 -2 -5 12 0 14 2 19 5 13 2
-7 2 -19 0 -25z m3209 -51 c-17 -46 -47 -79 -81 -91 -14 -5 -11 1 10 18 17 14
33 25 37 26 4 0 15 22 25 49 9 28 19 48 22 46 2 -3 -4 -24 -13 -48z m-3135
-71 l34 -28 -35 19 c-33 18 -69 71 -69 103 0 8 8 -3 18 -26 10 -22 34 -53 52
-68z m179 -36 c0 -5 -5 -10 -11 -10 -5 0 -7 5 -4 10 3 6 8 10 11 10 2 0 4 -4
4 -10z m-105 -84 c-10 -26 -19 -45 -20 -44 -2 2 2 27 8 56 7 31 15 48 20 43 6
-6 2 -27 -8 -55z m185 6 c36 -29 96 -110 88 -118 -3 -2 -18 16 -34 42 -30 47
-104 104 -135 104 -10 0 -27 -16 -39 -35 -24 -39 -37 -48 -19 -12 33 61 38 66
72 56 17 -5 47 -22 67 -37z m2686 6 l17 -33 -27 28 c-16 18 -33 27 -42 23 -9
-3 -20 -6 -24 -6 -16 0 -78 -60 -101 -97 -12 -20 -28 -61 -35 -92 -8 -38 -12
-47 -13 -27 -2 59 22 110 84 174 50 50 67 62 93 62 25 0 35 -6 48 -32z m72
-83 c-3 -3 -9 2 -12 12 -6 14 -5 15 5 6 7 -7 10 -15 7 -18z m-2878 1 c0 -2 -9
-6 -20 -9 -11 -3 -18 -1 -14 4 5 9 34 13 34 5z m336 -191 c33 -22 69 -45 80
-51 10 -7 16 -15 12 -19 -8 -9 -96 45 -146 89 -29 25 -72 92 -72 112 0 3 15
-15 33 -42 18 -28 57 -65 93 -89z m722 -290 c91 -19 169 -48 225 -85 45 -31
104 -97 94 -107 -3 -3 -17 12 -30 34 -53 83 -223 147 -432 162 l-120 8 97 2
c53 0 128 -6 166 -14z"/>
<path d="M1926 1792 c-2 -4 -22 -52 -44 -107 -22 -55 -55 -131 -72 -170 -52
-114 -53 -117 -31 -105 50 26 111 -4 111 -55 0 -14 2 -25 5 -25 7 0 165 167
233 246 l61 71 -72 38 c-40 20 -95 55 -124 76 -56 42 -59 43 -67 31z"/>
<path d="M3140 1765 c-25 -19 -82 -53 -126 -77 l-82 -43 62 -70 c33 -38 100
-110 148 -160 77 -80 87 -87 88 -64 0 58 79 91 122 52 14 -13 10 4 -17 67 -30
70 -61 143 -132 318 -7 17 -12 15 -63 -23z"/>
<path d="M1362 1660 c-82 -87 -112 -125 -108 -137 5 -13 33 9 127 103 109 109
132 142 104 151 -5 1 -61 -51 -123 -117z"/>
<path d="M3632 1768 c-9 -9 13 -38 91 -117 134 -138 145 -147 153 -126 5 11
-24 48 -97 123 -125 129 -132 135 -147 120z"/>
<path d="M2540 1084 c0 -245 6 -304 31 -289 5 4 9 116 9 276 0 262 0 269 -20
269 -19 0 -20 -7 -20 -256z"/>
<path d="M4061 1330 c0 -8 4 -22 9 -30 12 -18 12 -2 0 25 -6 13 -9 15 -9 5z"/>
<path d="M3530 901 c0 -4 -19 -29 -41 -55 -60 -68 -146 -108 -381 -175 -188
-55 -262 -98 -457 -269 -39 -34 -80 -62 -91 -62 -10 0 -47 24 -81 53 -183 154
-295 222 -449 271 -208 66 -248 80 -301 107 -34 17 -75 49 -102 80 -25 28 -49
49 -55 45 -5 -3 -36 -40 -68 -82 l-58 -76 55 -49 c71 -65 236 -190 293 -224
50 -29 95 -38 413 -85 114 -16 240 -38 280 -47 66 -15 76 -15 130 0 32 9 141
28 243 42 294 40 402 61 450 85 95 48 340 254 340 286 0 17 -99 164 -111 164
-5 0 -9 -4 -9 -9z m-1123 -507 c-3 -3 -12 -4 -19 -1 -8 3 -5 6 6 6 11 1 17 -2
13 -5z"/>
</g>
</svg>
